<svg id="Calque_1" data-name="Calque 1" xmlns="http://www.w3.org/2000/svg" xmlns:xlink="http://www.w3.org/1999/xlink" viewBox="0 0 200 230"><defs><style>.cls-1{fill:none;}.cls-2{clip-path:url(#clip-path);}</style><clipPath id="clip-path"><rect class="cls-1" x="30" y="23.53" width="140" height="182.93"/></clipPath></defs><title>Plan de travail 1</title><g class="cls-2"><path d="M162.3,192a3.49,3.49,0,1,1,3.47-3.49A3.48,3.48,0,0,1,162.3,192Zm0-11.22a7.74,7.74,0,1,0,7.7,7.73,7.72,7.72,0,0,0-7.7-7.73m-15.79,11.18A3.48,3.48,0,1,1,149,186l3-3a7.71,7.71,0,1,0,0,10.93l-3-3a3.49,3.49,0,0,1-2.46,1m-16.14-11.18v8.68a2.54,2.54,0,1,1-5.07,0v-8.68h-4.23v8.68a6.8,6.8,0,0,0,3,5.63,6.72,6.72,0,0,0,6.32.67v4a2.54,2.54,0,1,1-5.07,0h-4.23a6.77,6.77,0,1,0,13.53,0v-19ZM109.17,192a3.48,3.48,0,1,1,3.47-3.48,3.47,3.47,0,0,1-3.47,3.48Zm0-11.21a7.74,7.74,0,0,0-3.47.83v-9.94h-4.23V196.2h4.23v-.83a7.72,7.72,0,1,0,3.47-14.63M89.22,192a3.48,3.48,0,1,1,3.47-3.48A3.47,3.47,0,0,1,89.22,192Zm3.47-11.21v.83a7.72,7.72,0,1,0,0,13.8v.83h4.23V180.74ZM66.83,188a3.32,3.32,0,0,1,2-2.7A3,3,0,0,1,70,185a3.39,3.39,0,0,1,2.05.7l.06.06-2.61,1.09-2.51,1-.16.06Zm3.4,3.92a3.17,3.17,0,0,1-1.78-.47l4.7-2,.59-.24L78,187.44l-.83-2v0h0v0h0v0h0v0h0c-.07-.15-.15-.3-.22-.44s0-.09-.07-.14l-.2-.33-.1-.16-.16-.24h0a7.71,7.71,0,0,0-13.79,6.21v0a7.93,7.93,0,0,0,.66,1.78v0a8.24,8.24,0,0,0,.77,1.18h0a7.93,7.93,0,0,0,6.29,3,8.88,8.88,0,0,0,6.16-2.46l-2.74-3.23a4.84,4.84,0,0,1-3.5,1.36M56.56,180.73a5.83,5.83,0,0,0-1.5.2v-.2H50.82V196.2h4.24v-9.71a1.5,1.5,0,0,1,2.56-1.07l3-3a5.71,5.71,0,0,0-4-1.69m-18.42,1.06V186h3.91v2a3.91,3.91,0,1,1-7.82,0V179.8A3.91,3.91,0,0,1,40.91,177l3-3A8.14,8.14,0,0,0,30,179.8V188a8.14,8.14,0,0,0,16.28,0v-6.24Z"/><path d="M119.94,86.55c-.85.2-.32,1,.19,1.47a7.64,7.64,0,0,0,4.4,2,.76.76,0,0,0,.21,0,5.08,5.08,0,0,0,2.58-2.75c.53-1,.4-1.26-.48-1.19Zm-11.41,13.54c.7.15,3.86-.33,4-1.13s-2.38-1.57-3.41-1.82A11.79,11.79,0,0,1,105,95.35c-1.29-.92-3.18-2.53-3.68-1.9s.93,3.22,1.8,4.18a8.71,8.71,0,0,0,5.45,2.46m31.24-.24,1,.25c1.2.31,1.87,0,2.16-1.22a14.76,14.76,0,0,0,.33-2.49c0-.51.7-4.9.06-4.9s-1.36,3.51-1.47,4a11.57,11.57,0,0,1-.47,2.25c-.22.42-.39.42-.85.23a4.67,4.67,0,0,0-.8-.26,1.24,1.24,0,0,0-1.56.79,4.75,4.75,0,0,0-.26,1.4c0,1,0,2.09-.05,3.13a1.55,1.55,0,0,1-.21.89,7.63,7.63,0,0,1-1.93-1.63c-.55-.58-1.65-1.5-1.9-1.24s.52,1.6,1,2.22a25.12,25.12,0,0,0,2.1,2.6,1.44,1.44,0,0,0,2.55-.77,10.89,10.89,0,0,0,.26-2.14c0-1,0-2,0-3.15m-54.93,4.08c0-1.07,0-2,0-3a6.6,6.6,0,0,0-.26-1.65c-.15-.5-1-4.82-1.78-4.65-.53.11.06,4.57.06,5,0,1.53.07,3,.09,4.57s.8,2.13,2.27,1.64a14.74,14.74,0,0,0,2.26-1.1c1.18-.65,1-.46,1.57,1.75.3,1.08.54,2.17.75,3.27.29,1.48,1,1.91,2.25,1.32a8.33,8.33,0,0,0,3.46-2.9c.15-.23.44-.72.56-.92.46-.7,1.81-2.68,1.39-3s-2.42,1.92-2.72,2.25-.75.85-1,1.11a4.87,4.87,0,0,1-2,1.35c-.45-1.64-.82-3.25-1.35-4.79-.75-2.23-1.58-2.49-3.55-1.26-.37.23-.74.48-1.13.68a5.42,5.42,0,0,1-.82.24M134,55.2c-.22-.7-.58-1.36-.83-2.07C131.8,49.31,129.45,43,128.93,42a15.14,15.14,0,0,0-1.3-2.11c-.37-.48-.88-1.39-1.44-1.19s-.54,1.8-.61,2.42c0,.16,0,.32,0,.48,0,2.85,0,5.7.06,8.54,0,1.16.17,2.32.27,3.48a2.31,2.31,0,0,0,1.29,2c.91.49,1.74,1.14,2.62,1.69a4.61,4.61,0,0,0,1.44.63c.78.18,2.32.38,2.7-.32a3.73,3.73,0,0,0,0-2.42M73.31,50.51a42.3,42.3,0,0,0,1.61,11.14c.28,1.07.63,2.56,1.35,2.76a3.47,3.47,0,0,0,2.29-.71,18,18,0,0,1,2.29-1.5c1.21-.63,2.48-1.14,3.71-1.72a2,2,0,0,0,1.24-2.74,8.28,8.28,0,0,0-1.2-2.35c-2.37-3-4.8-6-7.24-9-.35-.43-.93-1.19-1.25-1.65-.53-.74-1.91-3.47-2.59-.84-.11.41-.19,3.17-.2,3.61,0,1,0,2,0,3M125,83.64a8.29,8.29,0,0,0,8.23-8.09,7.46,7.46,0,0,0-7.62-7.4,8.26,8.26,0,0,0-8.15,8.16A7.45,7.45,0,0,0,125,83.64M102.5,88.72a9.51,9.51,0,0,0,5.26-1.49,7.9,7.9,0,0,0,3.44-7.91c-1-5.95-7.87-9.61-13.41-7.63a7.94,7.94,0,0,0-5,10.67,10.43,10.43,0,0,0,9.66,6.36M57.37,137.86a18.38,18.38,0,0,1-1.52-2.14c-.43-.76-1.3-2.05-1.16-2.54s1.8-.11,2.55-.7a4,4,0,0,0-.92-1.54c-.63-.8-1.56-2.19-2.44-3.4-.55-.76-1.92-2.3-2-3.2s2.28-.49,3.06-1a1.34,1.34,0,0,0,.58-1.38c-.38-.79-.82-1.88-1.18-2.69-.45-1-.68-1.65-1.25-2.86-.48-1-1.11-3.38-.6-3.75s5.42.44,6.77,1a25.87,25.87,0,0,1,5.8,3.6c1,.9,2.1,1.73,3.32,2.74.16-1.1.31-2.06.42-3a290.82,290.82,0,0,0,1.66-39.59c-.11-5.26-.41-10.52-.57-15.78-.14-5.1-.34-10.2-.25-15.3.06-3.43.58-6.85.89-10.27a2.7,2.7,0,0,1,0-.28c.15-.79.3-3.39.65-3.61s.85,1.51,1.72,2.11c.14-.78.27-1.57.41-2.35.12-.61.25-2.79,1-3,.55-.19,1.15,1.4,1.49,2a13.74,13.74,0,0,1,.76,1.54,38.62,38.62,0,0,0,4.11,7.69C84.11,45,87.3,50.06,91.83,54c1.06.92,2,1.93,3,2.93a.89.89,0,0,0,1.29.19c3.44-2.2,7.33-3,11.3-3.47a28.09,28.09,0,0,1,7.93.2c1.69.27,1.74.27,2.15-1.43.55-2.26,1.07-4.54,1.5-6.83.6-3.15,1-6.35,1.67-9.49.81-3.84,1.51-6.45,2.43-10.27,0-.08.32-.83.35-.9.2-.52.57-1.43,1.12-1.43.19,0,.35.5.46,1.07,0,.19.15.72.29,1.22.21.72.22.83.5,1.65.23-.2,1-2.49,1.28-2.48s1,2.75,1,2.75.44,2.45.73,3.45c.17.58.39,1.14.39,1.14.87,1.7,3,6.86,4.26,10.42,1.78,5,3.51,10,5.24,15a77.9,77.9,0,0,1,2.91,12.06c.8,4.5,1.74,9,2.46,13.51.91,5.67,1,6,1.74,11.7.35,2.71,1.15,10.8,1.25,13.53.22,6.11.37,12.21.57,18.32.09,2.69.22,5.38.34,8.07.19,4.22.26,9.51-.4,11.93a13.35,13.35,0,0,1-6.9,8.07c-4.33,2.32-9.4,5.84-26,5.84a203.06,203.06,0,0,1-30.6-2.4,43.09,43.09,0,0,1-14.45-6.47c-4-2.82-11.52-13.12-12.26-14.07"/><path d="M109.85,80.79a1.83,1.83,0,0,1-1.25,1.91,1.61,1.61,0,0,1-1.86-.76,2.52,2.52,0,0,1-.26-.66c-.31-1.08-.62-2.16-.91-3.25a1.73,1.73,0,0,1,1.12-2.31A1.68,1.68,0,0,1,108.77,77c.42,1.34.78,2.7,1.08,3.75"/><path d="M127.17,74c0-1.21.48-1.88,1.31-2.07a1.54,1.54,0,0,1,1.84,1,19.89,19.89,0,0,1,.79,3.24,1.55,1.55,0,0,1-1.25,1.67,1.51,1.51,0,0,1-1.87-.9c-.38-1-.61-2.14-.82-2.92"/></g></svg>